HIERARCHY
ROOT hip
{
  OFFSET 97.157 68.6437 -147.907
  CHANNELS 6 Xposition Yposition Zposition Zrotation Xrotation Yrotation
  JOINT abdomen
  {
    OFFSET 0 20.6881 -0.73152
    CHANNELS 3 Zrotation Xrotation Yrotation
    JOINT chest
    {
      OFFSET 0 11.7043 -0.48768
      CHANNELS 3 Zrotation Xrotation Yrotation
      JOINT neck
      {
        OFFSET 0 22.1894 -2.19456
        CHANNELS 3 Zrotation Xrotation Yrotation
        JOINT head
        {
          OFFSET -0.24384 7.07133 1.2192
          CHANNELS 3 Zrotation Xrotation Yrotation
          JOINT leftEye
          {
            OFFSET 4.14528 8.04674 8.04672
            CHANNELS 3 Zrotation Xrotation Yrotation
            End Site
            {
              OFFSET 1 0 0
            }
          }
          JOINT rightEye
          {
            OFFSET -3.6576 8.04674 8.04672
            CHANNELS 3 Zrotation Xrotation Yrotation
            End Site
            {
              OFFSET 1 0 0
            }
          }
        }
      }
      JOINT rCollar
      {
        OFFSET -2.68224 19.2634 -4.8768
        CHANNELS 3 Zrotation Xrotation Yrotation
        JOINT rShldr
        {
          OFFSET -8.77824 -1.95073 1.46304
          CHANNELS 3 Zrotation Xrotation Yrotation
          JOINT rForeArm
          {
            OFFSET -28.1742 -1.7115 0.48768
            CHANNELS 3 Zrotation Xrotation Yrotation
            JOINT rHand
            {
              OFFSET -22.5879 0.773209 7.07136
              CHANNELS 3 Zrotation Xrotation Yrotation
              JOINT rThumb1
              {
                OFFSET -1.2192 -0.487915 3.41376
                CHANNELS 3 Zrotation Xrotation Yrotation
                JOINT rThumb2
                {
                  OFFSET -3.37035 -0.52449 3.41376
                  CHANNELS 3 Zrotation Xrotation Yrotation
                  End Site
                  {
                    OFFSET -1.78271 -1.18214 1.43049
                  }
                }
              }
              JOINT rIndex1
              {
                OFFSET -7.75947 0.938293 5.60832
                CHANNELS 3 Zrotation Xrotation Yrotation
                JOINT rIndex2
                {
                  OFFSET -2.54057 -0.884171 1.56538
                  CHANNELS 3 Zrotation Xrotation Yrotation
                  End Site
                  {
                    OFFSET -1.62519 -0.234802 1.16502
                  }
                }
              }
              JOINT rMid1
              {
                OFFSET -8.24714 1.18213 3.41376
                CHANNELS 3 Zrotation Xrotation Yrotation
                JOINT rMid2
                {
                  OFFSET -3.10165 -0.590103 1.0647
                  CHANNELS 3 Zrotation Xrotation Yrotation
                  End Site
                  {
                    OFFSET -2.48547 -0.328903 0.83742
                  }
                }
              }
              JOINT rRing1
              {
                OFFSET -8.82822 0.546677 1.51678
                CHANNELS 3 Zrotation Xrotation Yrotation
                JOINT rRing2
                {
                  OFFSET -2.60934 -0.819778 -0.0198488
                  CHANNELS 3 Zrotation Xrotation Yrotation
                  End Site
                  {
                    OFFSET -2.33842 -0.294052 0.168128
                  }
                }
              }
              JOINT rPinky1
              {
                OFFSET -8.27202 -0.0477905 -0.4584
                CHANNELS 3 Zrotation Xrotation Yrotation
                JOINT rPinky2
                {
                  OFFSET -1.82734 -0.647385 -0.700984
                  CHANNELS 3 Zrotation Xrotation Yrotation
                  End Site
                  {
                    OFFSET -1.69225 -0.51767 -0.607171
                  }
                }
              }
            }
          }
        }
      }
      JOINT lCollar
      {
        OFFSET 2.68224 19.2634 -4.8768
        CHANNELS 3 Zrotation Xrotation Yrotation
        JOINT lShldr
        {
          OFFSET 8.77824 -1.95073 1.46304
          CHANNELS 3 Zrotation Xrotation Yrotation
          JOINT lForeArm
          {
            OFFSET 28.1742 -1.7115 0.48768
            CHANNELS 3 Zrotation Xrotation Yrotation
            JOINT lHand
            {
              OFFSET 22.5879 0.773209 7.07136
              CHANNELS 3 Zrotation Xrotation Yrotation
              JOINT lThumb1
              {
                OFFSET 1.2192 -0.487915 3.41376
                CHANNELS 3 Zrotation Xrotation Yrotation
                JOINT lThumb2
                {
                  OFFSET 3.37035 -0.52449 3.41376
                  CHANNELS 3 Zrotation Xrotation Yrotation
                  End Site
                  {
                    OFFSET 1.78271 -1.18214 1.43049
                  }
                }
              }
              JOINT lIndex1
              {
                OFFSET 7.75947 0.938293 5.60832
                CHANNELS 3 Zrotation Xrotation Yrotation
                JOINT lIndex2
                {
                  OFFSET 2.54057 -0.884171 1.56538
                  CHANNELS 3 Zrotation Xrotation Yrotation
                  End Site
                  {
                    OFFSET 1.62519 -0.234802 1.16502
                  }
                }
              }
              JOINT lMid1
              {
                OFFSET 8.24714 1.18213 3.41376
                CHANNELS 3 Zrotation Xrotation Yrotation
                JOINT lMid2
                {
                  OFFSET 3.10165 -0.590103 1.0647
                  CHANNELS 3 Zrotation Xrotation Yrotation
                  End Site
                  {
                    OFFSET 2.48547 -0.328903 0.83742
                  }
                }
              }
              JOINT lRing1
              {
                OFFSET 8.82822 0.546677 1.51678
                CHANNELS 3 Zrotation Xrotation Yrotation
                JOINT lRing2
                {
                  OFFSET 2.60934 -0.819778 -0.0198488
                  CHANNELS 3 Zrotation Xrotation Yrotation
                  End Site
                  {
                    OFFSET 2.33842 -0.294052 0.168128
                  }
                }
              }
              JOINT lPinky1
              {
                OFFSET 8.27202 -0.0477905 -0.4584
                CHANNELS 3 Zrotation Xrotation Yrotation
                JOINT lPinky2
                {
                  OFFSET 1.82734 -0.647385 -0.700984
                  CHANNELS 3 Zrotation Xrotation Yrotation
                  End Site
                  {
                    OFFSET 1.69225 -0.51767 -0.607171
                  }
                }
              }
            }
          }
        }
      }
    }
  }
  JOINT rButtock
  {
    OFFSET -8.77824 4.35084 1.2192
    CHANNELS 3 Zrotation Xrotation Yrotation
    JOINT rThigh
    {
      OFFSET 0 -1.70687 -2.19456
      CHANNELS 3 Zrotation Xrotation Yrotation
      JOINT rShin
      {
        OFFSET 0 -36.8199 0.73152
        CHANNELS 3 Zrotation Xrotation Yrotation
        JOINT rFoot
        {
          OFFSET 0.73152 -45.1104 -5.12064
          CHANNELS 3 Zrotation Xrotation Yrotation
          End Site
          {
            OFFSET -1.1221 -3.69964 12.103
          }
        }
      }
    }
  }
  JOINT lButtock
  {
    OFFSET 8.77824 4.35084 1.2192
    CHANNELS 3 Zrotation Xrotation Yrotation
    JOINT lThigh
    {
      OFFSET 0 -1.70687 -2.19456
      CHANNELS 3 Zrotation Xrotation Yrotation
      JOINT lShin
      {
        OFFSET 0 -36.8199 0.73152
        CHANNELS 3 Zrotation Xrotation Yrotation
        JOINT lFoot
        {
          OFFSET -0.73152 -45.1104 -5.12064
          CHANNELS 3 Zrotation Xrotation Yrotation
          End Site
          {
            OFFSET 1.1221 -3.69964 12.103
          }
        }
      }
    }
  }
}
MOTION
Frames:	6
Frame Time:	0.00833333
-8.89747 65.9961 -14.7443 8.27167 -13.9539 -144.157 -11.5243 48.3198 6.25602 6.29901 -5.39533 -0.889065 -14.8264 12.0178 -9.91753 63.1256 -52.4059 3.67326 -0 0 0 -0 0 0 7.26961e-013 2.78367e-013 -5.65623e-013 62.1672 -3.58514 26.4484 -12.5688 -5.85318 22.7207 -0.124823 9.8539 1.39963 4.66343e-009 5.40548e-009 -4.39922e-009 8.03253e-009 9.40038e-009 -7.65432e-009 4.66344e-009 5.40548e-009 -4.39924e-009 7.73091 5.47488 0.417314 4.66343e-009 5.40548e-009 -4.39923e-009 2.90554 0.965183 0.102902 4.66343e-009 5.40548e-009 -4.39923e-009 10.2786 0.731801 0.0259123 4.66343e-009 5.40548e-009 -4.39922e-009 2.22167 -0.733487 -0.20892 7.26861e-013 2.78379e-013 -5.65897e-013 -51.8948 -44.3326 -42.9148 14.2081 -7.07356 -26.1835 4.19426 -49.29 9.31864 -6.02908e-009 1.18337e-009 7.80085e-010 -1.04149e-008 2.12063e-009 1.08333e-009 -6.02909e-009 1.18337e-009 7.80092e-010 -7.73091 5.47488 -0.417314 -6.02908e-009 1.18337e-009 7.80088e-010 -2.90554 0.965183 -0.102902 -6.02908e-009 1.18337e-009 7.80083e-010 -10.2786 0.731801 -0.0259123 -6.02907e-009 1.18337e-009 7.80077e-010 -2.22167 -0.733487 0.20892 -2.03217e-016 0 -3.88251e-019 -24.0953 -46.633 -47.5414 -2.84228 73.6384 2.9878 2.67228 -17.8254 7.83061 2.03217e-016 0 3.88251e-019 24.6092 -53.4852 24.6577 2.02309 70.3547 -2.65659 -0.771519 -8.73583 -7.0807 
-7.8104 66.4993 -15.7553 8.64028 -14.2077 -145.618 -12.1373 48.1336 7.18781 6.15415 -5.43282 -0.722442 -14.9521 12.5271 -10.2706 64.9215 -53.1314 3.68357 -0 0 0 -0 0 0 8.52452e-013 3.53041e-013 -7.02803e-013 63.2169 -4.48114 25.1464 -12.7343 -5.97706 23.0402 -0.0870791 8.38806 1.18745 5.33825e-009 6.34588e-009 -5.46162e-009 9.19183e-009 1.10358e-008 -9.49893e-009 5.33826e-009 6.34588e-009 -5.46164e-009 7.73091 5.47488 0.417314 5.33825e-009 6.34588e-009 -5.46163e-009 2.90554 0.965183 0.102902 5.33826e-009 6.34588e-009 -5.46163e-009 10.2786 0.731801 0.0259123 5.33825e-009 6.34587e-009 -5.46162e-009 2.22167 -0.733487 -0.20892 8.52331e-013 3.53042e-013 -7.03101e-013 -47.664 -41.1162 -38.3958 15.9115 -8.60523 -29.4861 6.26099 -55.6001 11.8445 -7.04691e-009 1.49444e-009 8.15421e-010 -1.2174e-008 2.67097e-009 1.10329e-009 -7.04692e-009 1.49444e-009 8.15427e-010 -7.73091 5.47488 -0.417314 -7.04692e-009 1.49444e-009 8.15424e-010 -2.90554 0.965183 -0.102902 -7.04692e-009 1.49444e-009 8.15419e-010 -10.2786 0.731801 -0.0259123 -7.04691e-009 1.49444e-009 8.15412e-010 -2.22167 -0.733487 0.20892 -2.03217e-016 0 -3.88251e-019 -23.5559 -46.2956 -48.1737 -2.8336 73.4439 2.88964 3.39703 -16.4214 10.5609 2.03217e-016 0 3.88251e-019 23.3542 -54.0218 23.5092 2.03469 70.2319 -2.58244 -1.04518 -8.19199 -9.27632 
-6.74178 66.9338 -16.7807 8.92057 -14.4181 -147.037 -12.7689 47.9395 8.13146 5.92767 -5.52066 -0.553541 -15.0351 13.0606 -10.6021 66.3392 -53.5275 3.46983 -0 0 0 -0 0 0 7.48367e-013 3.82194e-013 -7.02706e-013 64.2199 -5.02806 23.5529 -12.9891 -6.16987 23.5358 -0.0502519 6.62329 0.934926 4.61608e-009 5.71161e-009 -5.39574e-009 7.94584e-009 9.93086e-009 -9.37732e-009 4.61609e-009 5.71161e-009 -5.39576e-009 7.73091 5.47488 0.417314 4.61608e-009 5.7116e-009 -5.39575e-009 2.90554 0.965183 0.102902 4.61608e-009 5.7116e-009 -5.39575e-009 10.2786 0.731801 0.0259123 4.61608e-009 5.7116e-009 -5.39574e-009 2.22167 -0.733487 -0.20892 7.48228e-013 3.82183e-013 -7.03025e-013 -46.2759 -39.1527 -35.8007 17.7309 -10.5043 -33.1052 8.72641 -61.0687 14.7188 -6.0995e-009 1.32629e-009 6.92672e-010 -1.05398e-008 2.37127e-009 9.33552e-010 -6.09951e-009 1.32628e-009 6.9268e-010 -7.73091 5.47488 -0.417314 -6.09951e-009 1.32628e-009 6.92675e-010 -2.90554 0.965183 -0.102902 -6.09951e-009 1.32628e-009 6.9267e-010 -10.2786 0.731801 -0.0259123 -6.0995e-009 1.32628e-009 6.92662e-010 -2.22167 -0.733487 0.20892 -2.03217e-016 0 -3.88251e-019 -23.0969 -45.8536 -48.5616 -2.77822 73.1548 2.80839 3.44282 -15.3431 11.3711 2.03217e-016 0 3.88251e-019 22.0054 -54.4688 22.1444 2.0183 70.0072 -2.50608 -1.1454 -8.00894 -10.2362 
-5.73072 67.3135 -17.8175 9.11054 -14.6196 -148.423 -13.4457 47.7461 9.10645 5.64254 -5.6323 -0.383817 -15.0885 13.6305 -10.9134 67.584 -53.7453 3.16771 -0 0 0 -0 0 0 5.08362e-013 3.87443e-013 -6.25818e-013 65.2739 -5.42856 21.7641 -13.2953 -6.40389 24.1386 -0.0206377 4.71268 0.663487 3.05682e-009 4.07236e-009 -4.60325e-009 5.25924e-009 7.07818e-009 -7.99084e-009 3.05683e-009 4.07236e-009 -4.60327e-009 7.73091 5.47488 0.417314 3.05682e-009 4.07236e-009 -4.60326e-009 2.90554 0.965183 0.102902 3.05682e-009 4.07236e-009 -4.60326e-009 10.2786 0.731801 0.0259123 3.05681e-009 4.07235e-009 -4.60325e-009 2.22167 -0.733487 -0.20892 5.08201e-013 3.87419e-013 -6.26156e-013 -46.401 -37.8368 -34.1586 19.5402 -12.5764 -37.2181 12.1968 -66.3002 18.5983 -3.89379e-009 8.37785e-010 4.52791e-010 -6.73261e-009 1.50378e-009 6.15267e-010 -3.89379e-009 8.37782e-010 4.52803e-010 -7.73091 5.47488 -0.417314 -3.89379e-009 8.37783e-010 4.52795e-010 -2.90554 0.965183 -0.102902 -3.89379e-009 8.37783e-010 4.52791e-010 -10.2786 0.731801 -0.0259123 -3.89378e-009 8.37785e-010 4.52782e-010 -2.22167 -0.733487 0.20892 -2.03217e-016 0 -3.88251e-019 -22.7129 -45.3122 -48.7064 -2.68859 72.8001 2.74227 3.06872 -14.433 10.8218 2.03217e-016 0 3.88251e-019 20.4536 -54.8207 20.4255 1.97424 69.6143 -2.41921 -1.15307 -8.02659 -10.4003 
-4.74748 67.6187 -18.8894 9.23693 -14.7995 -149.79 -14.1031 47.514 10.0654 5.33121 -5.73749 -0.215985 -15.0398 14.1959 -11.2363 68.5089 -53.8897 2.67781 -0 0 0 -0 0 0 2.4798e-013 3.6834e-013 -5.13449e-013 66.3778 -5.82579 19.9084 -13.599 -6.63824 24.7455 -0.00505624 2.88364 0.405288 1.31929e-009 2.19445e-009 -3.50813e-009 2.26631e-009 3.81102e-009 -6.07965e-009 1.3193e-009 2.19445e-009 -3.50814e-009 7.73091 5.47488 0.417314 1.31929e-009 2.19444e-009 -3.50813e-009 2.90554 0.965183 0.102902 1.3193e-009 2.19444e-009 -3.50813e-009 10.2786 0.731801 0.0259123 1.31928e-009 2.19444e-009 -3.50812e-009 2.22167 -0.733487 -0.20892 2.47801e-013 3.68305e-013 -5.138e-013 -47.2283 -36.787 -33.0736 21.1578 -14.6217 -41.4033 16.548 -70.502 23.2889 -1.45644e-009 2.81055e-010 1.95008e-010 -2.525e-009 5.16e-010 2.75742e-010 -1.45644e-009 2.81053e-010 1.95022e-010 -7.73091 5.47488 -0.417314 -1.45644e-009 2.81055e-010 1.95011e-010 -2.90554 0.965183 -0.102902 -1.45644e-009 2.81055e-010 1.95008e-010 -10.2786 0.731801 -0.0259123 -1.45643e-009 2.81057e-010 1.94998e-010 -2.22167 -0.733487 0.20892 -2.03217e-016 0 -3.88251e-019 -22.3367 -44.7354 -48.4489 -2.56753 72.3158 2.67453 2.43391 -13.6674 9.22778 2.03217e-016 0 3.88251e-019 18.9381 -55.029 18.6814 1.92026 69.1587 -2.33718 -1.14412 -8.142 -10.2503 
-3.80508 67.8531 -20.003 9.3277 -14.9437 -151.152 -14.6731 47.2054 10.9593 5.02577 -5.80599 -0.0527933 -14.8163 14.7158 -11.6024 68.9616 -54.0629 1.89662 -0 0 0 -0 0 0 8.27674e-014 3.24435e-013 -4.06912e-013 67.5155 -6.37054 18.1145 -13.85 -6.83409 25.2529 -0.0022813 1.3637 0.191691 6.23309e-011 8.44186e-010 -2.53434e-009 1.0129e-010 1.46255e-009 -4.38388e-009 6.23397e-011 8.44184e-010 -2.53435e-009 7.73091 5.47488 0.417314 6.23305e-011 8.4418e-010 -2.53434e-009 2.90554 0.965183 0.102902 6.23351e-011 8.4418e-010 -2.53433e-009 10.2786 0.731801 0.0259123 6.23216e-011 8.44182e-010 -2.53432e-009 2.22167 -0.733487 -0.20892 8.25774e-014 3.24398e-013 -4.0726e-013 -48.0622 -35.5681 -32.2525 22.5168 -16.5534 -45.21 20.3834 -72.9762 27.323 1.85873e-010 -9.17876e-011 1.8549e-011 3.10524e-010 -1.44575e-010 4.22831e-011 1.8587e-010 -9.17896e-011 1.85649e-011 -7.73091 5.47488 -0.417314 1.85873e-010 -9.17877e-011 1.85522e-011 -2.90554 0.965183 -0.102902 1.85869e-010 -9.17876e-011 1.85506e-011 -10.2786 0.731801 -0.0259123 1.85882e-010 -9.1786e-011 1.85395e-011 -2.22167 -0.733487 0.20892 -2.03217e-016 0 -3.88251e-019 -21.9109 -44.177 -47.6342 -2.42054 71.6379 2.59113 1.66438 -13.0215 6.89463 2.03217e-016 0 3.88251e-019 17.7139 -55.0638 17.257 1.87126 68.7455 -2.2725 -1.19189 -8.25129 -10.2674 
